<?xml version="1.0" standalone="no"?>
<!DOCTYPE svg PUBLIC "-//W3C//DTD SVG 20010904//EN"
 "http://www.w3.org/TR/2001/REC-SVG-20010904/DTD/svg10.dtd">
<svg version="1.0" xmlns="http://www.w3.org/2000/svg"
 width="512.000000pt" height="512.000000pt" viewBox="0 0 512.000000 512.000000"
 preserveAspectRatio="xMidYMid meet">
<metadata>
Created by potrace 1.14, written by Peter Selinger 2001-2017
</metadata>
<g transform="translate(0.000000,512.000000) scale(0.100000,-0.100000)"
fill="#000000" stroke="none">
<path d="M921 4445 c-4 -5 -6 -496 -6 -1090 l1 -1080 -67 -70 c-150 -158 -174
-183 -233 -249 -33 -38 -70 -79 -81 -91 -25 -28 -76 -90 -149 -180 -31 -38
-63 -77 -70 -85 -7 -9 -53 -70 -103 -137 l-92 -120 97 -66 c267 -181 433 -415
677 -955 l78 -173 41 63 c126 196 333 506 394 593 39 55 77 108 84 119 61 89
313 414 392 507 17 19 53 62 81 95 109 130 394 420 530 541 132 116 250 212
262 213 20 0 95 -70 173 -163 41 -48 80 -93 85 -100 56 -65 224 -319 304 -459
18 -32 38 -58 45 -58 7 0 35 7 62 15 l49 14 1 708 c0 662 5 909 21 1128 3 50
6 114 7 143 l1 53 -70 24 c-67 23 -276 78 -340 90 -78 14 -156 25 -220 32 -96
11 -479 10 -655 -1 -246 -16 -461 -13 -665 10 l-50 6 40 -37 c22 -21 87 -81
144 -134 146 -134 227 -221 292 -311 31 -43 71 -112 67 -115 -2 -1 -50 -31
-108 -65 -87 -53 -225 -142 -350 -227 -111 -76 -332 -253 -487 -391 -46 -40
-83 -67 -84 -60 -4 74 0 1970 4 1975 4 3 59 7 124 8 65 2 121 3 124 4 3 1 5
20 5 43 l-1 42 -173 0 c-105 1 -176 -3 -181 -9z"/>
<path d="M3874 4451 c-2 -2 -4 -22 -4 -43 0 -29 4 -38 18 -39 9 -1 68 -2 131
-3 l114 -1 0 -1806 c0 -993 -3 -1811 -6 -1816 -4 -6 -32 -10 -64 -11 -32 0
-88 -1 -126 -1 l-67 -1 1 -43 2 -43 179 0 c98 0 178 2 179 5 1 3 2 858 3 1899
1 1253 -2 1896 -9 1900 -11 7 -344 10 -351 3z"/>
</g>
</svg>
